<?xml version="1.0" encoding="UTF-8"?>
<svg width="39px" height="55px" viewBox="0 0 39 55" version="1.1" xmlns="http://www.w3.org/2000/svg" xmlns:xlink="http://www.w3.org/1999/xlink">
    <title>BF8DDDA6-A60D-4513-9778-ACDEB46FA23A</title>
    <g id="Mockups-" stroke="none" stroke-width="1" fill="none" fill-rule="evenodd">
        <g id="Syllabus-UX/UI-Designing" transform="translate(-174.000000, -1289.000000)" fill-rule="nonzero">
            <g id="UX-Foundation" transform="translate(150.000000, 1268.000000)">
                <g id="html5" transform="translate(24.000000, 21.000000)">
                    <polygon id="Path" fill="#E44D26" points="3.54926565 50.582664 0 10.8090039 39 10.8090039 35.4472041 50.5764914 19.4761705 55"></polygon>
                    <polygon id="Path" fill="#F16529" points="19.5 51.6187693 32.4049764 48.0439854 35.4414673 14.061493 19.5 14.061493"></polygon>
                    <path d="M19.5,28.812988 L13.0391274,28.812988 L12.5934282,23.8171965 L19.5,23.8171965 L19.5,18.9391243 L7.25739437,18.9391243 L7.37389396,20.2481442 L8.57419267,33.6906193 L19.5,33.6906193 L19.5,28.812988 Z M19.5,41.4812499 L19.478377,41.4869815 L14.0412886,40.01968 L13.693555,36.1296555 L8.7921881,36.1296555 L9.47618186,43.788899 L19.4774944,46.563016 L19.5,46.5564026 L19.5,41.4812499 Z" id="Shape" fill="#EBEBEB"></path>
                    <path d="M3.62869719,0 L6.10960873,0 L6.10960873,2.44961762 L8.37958542,2.44961762 L8.37958542,0 L10.8609382,0 L10.8609382,7.41675084 L8.37958542,7.41675084 L8.37958542,4.93318423 L6.11005001,4.93318423 L6.11005001,7.41675084 L3.62869719,7.41675084 L3.62869719,0 L3.62869719,0 Z M14.1233678,2.45975823 L11.9390007,2.45975823 L11.9390007,0 L18.7899704,0 L18.7899704,2.45975823 L16.6047206,2.45975823 L16.6047206,7.41675084 L14.1233678,7.41675084 L14.1233678,2.45975823 Z M19.8772998,0 L22.46412,0 L24.0558397,2.60613567 L25.6457942,0 L28.2339383,0 L28.2339383,7.41675084 L25.7622938,7.41675084 L25.7622938,3.74056082 L24.0558397,6.3775592 L24.0125936,6.3775592 L22.3048157,3.74056082 L22.3048157,7.41675084 L19.8768585,7.41675084 L19.8768585,0 L19.8772998,0 Z M29.4690986,0 L31.9508928,0 L31.9508928,4.96536963 L35.4401435,4.96536963 L35.4401435,7.41719173 L29.4690986,7.41719173 L29.4690986,0 L29.4690986,0 Z" id="Shape" fill="#000000"></path>
                    <path d="M19.4832311,28.812988 L19.4832311,33.6906193 L25.4953156,33.6906193 L24.928704,40.0170346 L19.4832311,41.4856589 L19.4832311,46.5603707 L29.4924868,43.788899 L29.5657403,42.9644237 L30.7130847,30.1224488 L30.832232,28.812988 L29.5163163,28.812988 L19.4832311,28.812988 Z M19.4832311,18.9391243 L19.4832311,23.8171965 L31.2766073,23.8171965 L31.3741316,22.7206884 L31.5969811,20.2481442 L31.713922,18.9391243 L19.4832311,18.9391243 Z" id="Shape" fill="#FFFFFF"></path>
                </g>
            </g>
        </g>
    </g>
</svg>