<?xml version="1.0" encoding="UTF-8"?>
<svg width="55px" height="55px" viewBox="0 0 55 55" version="1.1" xmlns="http://www.w3.org/2000/svg" xmlns:xlink="http://www.w3.org/1999/xlink">
    <title>19838EC1-E8F0-4064-B3FE-7CB71D14C1CC</title>
    <g id="Mockups-" stroke="none" stroke-width="1" fill="none" fill-rule="evenodd">
        <g id="Syllabus-UX/UI-Designing" transform="translate(-174.000000, -1501.000000)" fill-rule="nonzero">
            <g id="UX-Foundation" transform="translate(150.000000, 1480.000000)">
                <g id="javascript" transform="translate(24.000000, 21.000000)">
                    <rect id="Rectangle" fill="#F7DF1E" x="0" y="0" width="55" height="55" rx="1.62"></rect>
                    <path d="M34.8046875,39.7460937 C35.8789062,41.5722656 37.3828125,42.8613281 39.8535156,42.8613281 C42.0019531,42.8613281 43.3984375,41.7871094 43.3984375,40.2832031 C43.3984375,38.5644531 42.0019531,37.9199219 39.6386719,36.8457031 L38.3496094,36.3085937 C34.5898438,34.6972656 32.1191406,32.7636719 32.1191406,28.5742187 C32.1191406,24.7070312 35.0195312,21.6992188 39.6386719,21.6992188 C42.96875,21.6992188 45.3320313,22.8808594 46.9433594,25.8886719 L42.96875,28.4667969 C42.109375,26.8554688 41.1425781,26.2109375 39.6386719,26.2109375 C38.1347656,26.2109375 37.1679688,27.1777344 37.1679688,28.4667969 C37.1679688,29.9707031 38.1347656,30.6152344 40.390625,31.5820312 L41.6796875,32.1191406 C46.0839844,34.0527344 48.5546875,35.8789062 48.5546875,40.2832031 C48.5546875,44.9023437 44.9023438,47.4804687 39.9609375,47.4804687 C35.1269531,47.4804687 32.0117188,45.2246094 30.5078125,42.2167969 L34.8046875,39.7460937 Z M16.5429688,40.1757812 C17.4023438,41.5722656 18.046875,42.8613281 19.8730469,42.8613281 C21.5917969,42.8613281 22.6660156,42.2167969 22.6660156,39.6386719 L22.6660156,21.8066406 L27.8222656,21.8066406 L27.8222656,39.4238281 C27.8222656,44.7949219 24.7070312,47.1582031 20.0878906,47.1582031 C15.8984375,47.1582031 13.5351562,45.0097656 12.3535156,42.4316406 L16.5429688,40.1757812 Z" id="Shape" fill="#000000"></path>
                </g>
            </g>
        </g>
    </g>
</svg>