<?xml version="1.0" encoding="UTF-8"?>
<svg width="61px" height="55px" viewBox="0 0 61 55" version="1.1" xmlns="http://www.w3.org/2000/svg" xmlns:xlink="http://www.w3.org/1999/xlink">
    <title>9D27FC5B-FB64-45BC-9964-B7024C0EC0F6</title>
    <g id="Mockups-" stroke="none" stroke-width="1" fill="none" fill-rule="evenodd">
        <g id="Syllabus-UX/UI-Designing" transform="translate(-174.000000, -1607.000000)" fill="#61DAFB" fill-rule="nonzero">
            <g id="UX-Foundation" transform="translate(150.000000, 1586.000000)">
                <g id="react" transform="translate(24.000000, 21.000000)">
                    <ellipse id="Oval" cx="30.5" cy="27.5" rx="5.5543131" ry="5.60822898"></ellipse>
                    <path d="M51.5966454,18.2513417 C50.5247604,17.8577818 49.4041534,17.4642218 48.2348243,17.1198569 C48.5271565,15.9391771 48.7707668,14.7584973 48.965655,13.6270125 C49.9888179,7.1332737 48.8682109,2.55813953 45.75,0.787119857 C44.8242812,0.245974955 43.8011182,0 42.6317891,0 C39.221246,0 34.884984,2.55813953 30.5,6.83810376 C26.115016,2.55813953 21.778754,0 18.3682109,0 C17.1988818,0 16.1757188,0.245974955 15.25,0.787119857 C12.1317891,2.60733453 11.0111821,7.18246869 12.034345,13.6270125 C12.2292332,14.7584973 12.4728435,15.9391771 12.7651757,17.1198569 C11.5958466,17.4642218 10.4752396,17.8085868 9.40335463,18.2513417 C3.31309904,20.6127013 0,23.8595707 0,27.5 C0,31.1404293 3.36182109,34.3872987 9.40335463,36.7486583 C10.4752396,37.1422182 11.5958466,37.5357782 12.7651757,37.8801431 C12.4728435,39.0608229 12.2292332,40.2415027 12.034345,41.3729875 C11.0111821,47.8667263 12.1317891,52.4418605 15.25,54.2128801 C16.1757188,54.754025 17.1988818,55 18.3682109,55 C21.827476,55 26.163738,52.4418605 30.5,48.1618962 C34.884984,52.4418605 39.221246,55 42.6317891,55 C43.8011182,55 44.8242812,54.754025 45.75,54.2128801 C48.8682109,52.3926655 49.9888179,47.8175313 48.965655,41.3729875 C48.7707668,40.2415027 48.5271565,39.0608229 48.2348243,37.8801431 C49.4041534,37.5357782 50.5247604,37.1914132 51.5966454,36.7486583 C57.686901,34.3872987 61,31.1404293 61,27.5 C61,23.8595707 57.686901,20.6127013 51.5966454,18.2513417 Z M44.3857827,3.24686941 C46.3833866,4.42754919 47.0654952,8.06797853 46.2372204,13.2334526 C46.0910543,14.2665474 45.8474441,15.3488372 45.5551118,16.480322 C43.0215655,15.8899821 40.341853,15.4964222 37.5159744,15.2504472 C35.8594249,12.8890877 34.1541534,10.773703 32.4488818,8.85509839 C36.0543131,5.26386404 39.7084665,2.80411449 42.6805112,2.80411449 C43.3138978,2.80411449 43.8985623,2.95169946 44.3857827,3.24686941 L44.3857827,3.24686941 Z M38.9289137,32.4194991 C38.0519169,33.9937388 37.028754,35.5679785 35.956869,37.1422182 C34.1541534,37.2898032 32.3514377,37.3389982 30.5,37.3389982 C28.5998403,37.3389982 26.7971246,37.2898032 25.043131,37.1422182 C23.971246,35.5679785 22.9968051,33.9937388 22.1198083,32.4194991 C21.1940895,30.7960644 20.3170927,29.1234347 19.5375399,27.5 C20.3170927,25.8765653 21.1940895,24.2039356 22.1198083,22.5805009 C22.9968051,21.0062612 24.0199681,19.4320215 25.091853,17.8577818 C26.8945687,17.7101968 28.6972843,17.6610018 30.548722,17.6610018 C32.4488818,17.6610018 34.2515974,17.7101968 36.0055911,17.8577818 C37.077476,19.4320215 38.0519169,21.0062612 38.9289137,22.5805009 C39.8546326,24.2039356 40.7316294,25.8765653 41.5111821,27.5 C40.6829073,29.1234347 39.8546326,30.7468694 38.9289137,32.4194991 Z M42.9728435,30.7960644 C43.7036741,32.5178891 44.2883387,34.1905188 44.8242812,35.8631485 C43.1677316,36.2567084 41.413738,36.5518784 39.5623003,36.7978533 C40.1469649,35.8631485 40.7803514,34.8792487 41.3162939,33.8461538 C41.9009585,32.813059 42.436901,31.7799642 42.9728435,30.7960644 Z M30.5,44.127907 C29.3306709,42.8488372 28.2100639,41.4713775 27.1381789,40.0447227 C28.2587859,40.0939177 29.379393,40.1431127 30.5,40.1431127 C31.620607,40.1431127 32.7412141,40.0939177 33.8618211,40.0447227 C32.7899361,41.4713775 31.6693291,42.8488372 30.5,44.127907 Z M21.4376997,36.7486583 C19.586262,36.5026834 17.8322684,36.2075134 16.1757188,35.8139535 C16.7116613,34.1905188 17.2963259,32.4686941 18.0271565,30.7468694 C18.563099,31.7307692 19.0990415,32.763864 19.6837061,33.7477639 C20.2683706,34.8300537 20.8530351,35.7647585 21.4376997,36.7486583 L21.4376997,36.7486583 Z M18.0271565,24.2039356 C17.2963259,22.4821109 16.7116613,20.8094812 16.1757188,19.1368515 C17.8322684,18.7432916 19.586262,18.4481216 21.4376997,18.2021467 C20.8530351,19.1368515 20.2196486,20.1207513 19.6837061,21.1538462 C19.0990415,22.186941 18.563099,23.2200358 18.0271565,24.2039356 L18.0271565,24.2039356 Z M30.5,10.872093 C31.6693291,12.1511628 32.7899361,13.5286225 33.8618211,14.9552773 C32.7412141,14.9060823 31.620607,14.8568873 30.5,14.8568873 C29.379393,14.8568873 28.2587859,14.9060823 27.1381789,14.9552773 C28.2100639,13.5286225 29.3306709,12.1511628 30.5,10.872093 Z M41.3162939,21.2030411 L39.5623003,18.2513417 C41.413738,18.4973166 43.1677316,18.7924866 44.8242812,19.1860465 C44.2883387,20.8094812 43.7036741,22.5313059 42.9728435,24.2531306 C42.436901,23.2200358 41.9009585,22.186941 41.3162939,21.2030411 L41.3162939,21.2030411 Z M14.7627796,13.2334526 C13.9345048,8.06797853 14.6166134,4.42754919 16.6142173,3.24686941 C17.1014377,2.95169946 17.6861022,2.80411449 18.3194888,2.80411449 C21.2428115,2.80411449 24.8969649,5.21466905 28.5511182,8.85509839 C26.8458466,10.7245081 25.1405751,12.8890877 23.4840256,15.2504472 C20.658147,15.4964222 17.9784345,15.9391771 15.4448882,16.480322 C15.1525559,15.3488372 14.9576677,14.2665474 14.7627796,13.2334526 Z M2.7284345,27.5 C2.7284345,25.1878354 5.50559105,22.7280859 10.3777955,20.9078712 C11.3522364,20.5143113 12.4241214,20.1699463 13.4960064,19.8747764 C14.2755591,22.3345259 15.25,24.9418605 16.4193291,27.549195 C15.25,30.1565295 14.2268371,32.7146691 13.4960064,35.1744186 C6.77236422,33.206619 2.7284345,30.2549195 2.7284345,27.5 Z M16.6142173,51.7531306 C14.6166134,50.5724508 13.9345048,46.9320215 14.7627796,41.7665474 C14.9089457,40.7334526 15.1525559,39.6511628 15.4448882,38.519678 C17.9784345,39.1100179 20.658147,39.5035778 23.4840256,39.7495528 C25.1405751,42.1109123 26.8458466,44.226297 28.5511182,46.1449016 C24.9456869,49.736136 21.2915335,52.1958855 18.3194888,52.1958855 C17.6861022,52.1958855 17.1014377,52.0483005 16.6142173,51.7531306 Z M46.2372204,41.7665474 C47.0654952,46.9320215 46.3833866,50.5724508 44.3857827,51.7531306 C43.8985623,52.0483005 43.3138978,52.1958855 42.6805112,52.1958855 C39.7571885,52.1958855 36.1030351,49.7853309 32.4488818,46.1449016 C34.1541534,44.2754919 35.8594249,42.1109123 37.5159744,39.7495528 C40.341853,39.5035778 43.0215655,39.0608229 45.5551118,38.519678 C45.8474441,39.6511628 46.0423323,40.7334526 46.2372204,41.7665474 L46.2372204,41.7665474 Z M50.6222045,34.0921288 C49.6477636,34.4856887 48.5758786,34.8300537 47.5039936,35.1252236 C46.7244409,32.6654741 45.75,30.0581395 44.5806709,27.450805 C45.75,24.8434705 46.7731629,22.2853309 47.5039936,19.8255814 C54.2276358,21.793381 58.2715655,24.7450805 58.2715655,27.5 C58.2715655,29.8121646 55.4456869,32.2719141 50.6222045,34.0921288 L50.6222045,34.0921288 Z" id="Shape"></path>
                </g>
            </g>
        </g>
    </g>
</svg>