<?xml version="1.0" encoding="UTF-8"?>
<svg width="47px" height="42px" viewBox="0 0 47 42" version="1.1" xmlns="http://www.w3.org/2000/svg" xmlns:xlink="http://www.w3.org/1999/xlink">
    <title>9E8A1C32-58A7-4D2F-81B7-E6638200F91D</title>
    <g id="Mockups-" stroke="none" stroke-width="1" fill="none" fill-rule="evenodd">
        <g id="Syllabus-UX/UI-Designing" transform="translate(-174.000000, -1189.000000)" fill-rule="nonzero">
            <g id="UX-Foundation" transform="translate(150.000000, 1162.000000)">
                <g id="sketch" transform="translate(24.000000, 27.000000)">
                    <polygon id="Path" fill="#FDB300" points="10.2552459 1.38440467 23.5 0 36.7447541 1.38440467 47 14.975347 23.5 42 0 14.975347"></polygon>
                    <polygon id="Path" fill="#EA6C00" points="9.51942623 14.975347 23.5 42 0 14.975347"></polygon>
                    <polygon id="Path" fill="#EA6C00" points="37.4805738 14.975347 23.5 42 47 14.975347"></polygon>
                    <polygon id="Path" fill="#FDAD00" points="9.51942623 14.975347 37.4805738 14.975347 23.5 42"></polygon>
                    <polygon id="Path" fill="#FDD231" points="23.5 0 10.2552459 1.38440467 9.51942623 14.975347"></polygon>
                    <polygon id="Path" fill="#FDD231" points="23.5 0 36.7447541 1.38440467 37.4805738 14.975347"></polygon>
                    <polygon id="Path" fill="#FDAD00" points="47 14.975347 36.7447541 1.38440467 37.4805738 14.975347"></polygon>
                    <polygon id="Path" fill="#FEEEB7" points="23.5 0 9.51942623 14.975347 37.4805738 14.975347"></polygon>
                    <polygon id="Path" fill="#FDAD00" points="0 14.975347 10.2552459 1.38440467 9.51942623 14.975347"></polygon>
                </g>
            </g>
        </g>
    </g>
</svg>