<?xml version="1.0" encoding="UTF-8"?>
<svg width="53px" height="44px" viewBox="0 0 53 44" version="1.1" xmlns="http://www.w3.org/2000/svg" xmlns:xlink="http://www.w3.org/1999/xlink">
    <title>FC9F8749-1402-4D04-96E1-06354DBF2A19</title>
    <g id="Mockups-" stroke="none" stroke-width="1" fill="none" fill-rule="evenodd">
        <g id="Syllabus-UX/UI-Designing" transform="translate(-174.000000, -413.000000)" fill-rule="nonzero">
            <g id="Group-7" transform="translate(150.000000, 249.000000)">
                <g id="UX-Foundation" transform="translate(0.000000, 134.000000)">
                    <g id="ux-design" transform="translate(24.000000, 30.000000)">
                        <path d="M6.05891923,34.3125341 L9.62309352,34.3125341 C10.4456593,34.3125341 11.1159754,34.9679789 11.1159754,35.8019686 C11.1159754,36.6063204 10.4456593,37.2615773 9.62309352,37.2615773 L6.71016692,37.2615773 C5.91804989,37.2615773 5.21748308,37.8872248 5.21748308,38.7212145 C5.21748308,39.5255948 5.8877467,40.1810112 6.71016692,40.1810112 L10.4150649,40.1810112 C11.0658059,41.463533 11.8862576,42.6475618 12.8392151,43.7150666 L38.2198958,43.7150666 C39.1721777,42.6474422 39.9921518,41.4633963 40.6429219,40.1810112 L42.6225534,40.1810112 C43.4753991,40.1810112 44.1151848,39.5255891 44.1151848,38.7212145 C44.1151848,37.9170563 43.4449212,37.2615773 42.6225534,37.2615773 L38.784107,37.2615773 C37.9615412,37.2615773 37.2914232,36.6063204 37.2914232,35.8019686 C37.2914232,34.9679789 37.9615412,34.3125341 38.784107,34.3125341 L44.5722429,34.3125341 C45.4251177,34.3125341 46.0954046,33.6572544 46.0954046,32.8529026 C46.0954046,32.0485223 45.4251177,31.3932654 44.5722429,31.3932654 L41.0383776,31.3932654 C40.1855027,31.3932654 39.5152158,30.7378149 39.5152158,29.9336567 C39.5152158,29.0994448 40.1855027,28.444188 41.0383776,28.444188 L44.5787485,28.444188 C45.4013143,28.444188 46.1019102,27.8185462 46.1019102,26.9845849 C46.1019102,26.1802331 45.4317922,25.5247541 44.5787485,25.5247541 L40.6684492,25.5247541 C37.906561,20.0802115 32.1719493,16.3337873 25.5353359,16.3337873 C18.8977674,16.3337873 13.1578324,20.0790611 10.3962004,25.5247541 L8.03914484,25.5247541 C7.18607198,25.5247541 6.51598308,26.2100305 6.51598308,26.9845849 C6.51598308,27.7887431 7.1860778,28.444188 8.03914484,28.444188 L11.8775621,28.444188 C12.6999299,28.444188 13.3702459,29.0994448 13.3702459,29.9336567 C13.3702459,30.7378149 12.6999299,31.3932654 11.8775621,31.3932654 L6.05892505,31.3932654 C5.23655725,31.3932654 4.56629363,32.0485166 4.56629363,32.8529026 C4.56629363,33.6572544 5.23655143,34.3125341 6.05891923,34.3125341 Z" id="Path" fill="#FACBD6"></path>
                        <path d="M36.9697831,19.9260364 L36.9697831,35.8652253 C36.9697831,36.8101748 36.1896522,37.5729915 35.2233399,37.5729915 L9.60886505,37.5729915 C8.64241297,37.5729915 7.86242187,36.8101748 7.86242187,35.8652253 L7.86242187,19.9260364 C7.86242187,18.9867479 8.64240714,18.2182645 9.60886505,18.2182645 L35.2233399,18.2182645 C36.1896522,18.2182645 36.9697831,18.9867479 36.9697831,19.9260364 Z" id="Path" fill="#FFFFFF"></path>
                        <path d="M9.89375462,35.9663267 C9.73421879,35.9663267 9.60915044,35.8440277 9.60915044,35.6880245 L9.60915044,20.1030322 C9.60915044,19.9494779 9.73700275,19.82473 9.89375462,19.82473 L34.9390211,19.82473 C35.0957788,19.82473 35.2236253,19.9494779 35.2236253,20.1030322 L35.2236253,35.6880188 C35.2236253,35.844022 35.0985569,35.9663267 34.9390211,35.9663267 L9.89375462,35.9663267 L9.89375462,35.9663267 Z" id="Path" fill="#45B9EA"></path>
                        <polygon id="Path" fill="#EAF3FB" points="29.5355604 42.2920382 29.5355604 43.7152716 15.3018571 43.7152716 15.3018571 42.2920382 19.08 41.438326 25.7515934 41.438326"></polygon>
                        <path d="M31.7282927,26.6874828 L31.7282927,42.5767475 C31.7282927,43.2055331 32.2495623,43.7152602 32.8925863,43.7152602 L43.9728536,43.7152602 C44.6158776,43.7152602 45.137153,43.2055331 45.137153,42.5767475 L45.137153,26.6874828 C45.137153,26.0586973 44.6158776,25.5489701 43.9728536,25.5489701 L32.8925863,25.5489701 C32.2495623,25.5489701 31.7282927,26.0586973 31.7282927,26.6874828 Z" id="Path" fill="#FFFFFF"></path>
                        <rect id="Rectangle" fill="#A8BAE0" x="31.7283626" y="28.1548143" width="13.409" height="12.3984758"></rect>
                        <path d="M39.9433335,26.5672057 L36.9221005,26.5672057 C36.7612543,26.5672057 36.6308568,26.694693 36.6308568,26.8519548 C36.6308568,27.0092395 36.7612543,27.1367268 36.9221005,27.1367268 L39.9433335,27.1367268 C40.1041798,27.1367268 40.2345773,27.0092395 40.2345773,26.8519548 C40.2345773,26.6946987 40.1041798,26.5672057 39.9433335,26.5672057 Z" id="Path" fill="#D1D2D2"></path>
                        <ellipse id="Oval" fill="#D1D2D2" cx="38.4325714" cy="42.1342808" rx="1" ry="1"></ellipse>
                        <path d="M33.5215565,30.3509391 L33.5215565,31.9589423 C33.5215565,32.1162099 33.6519365,32.2437029 33.8127653,32.2437029 L43.0526688,32.2437029 C43.2135034,32.2437029 43.3438776,32.1162155 43.3438776,31.9589423 L43.3438776,30.3509391 C43.3438776,30.1936716 43.2135034,30.0661785 43.0526688,30.0661785 L33.8127653,30.0661785 C33.6519365,30.0661785 33.5215565,30.1936716 33.5215565,30.3509391 Z M33.5215565,34.2759139 L33.5215565,38.3575012 C33.5215565,38.5147745 33.6519365,38.6422618 33.8127653,38.6422618 L37.2678935,38.6422618 C37.4287281,38.6422618 37.5591023,38.5147745 37.5591023,38.3575012 L37.5591023,34.2759139 C37.5591023,34.1186406 37.4287281,33.9911533 37.2678935,33.9911533 L33.8127653,33.9911533 C33.6519365,33.9911533 33.5215565,34.1186463 33.5215565,34.2759139 Z M39.3063376,34.2759139 L39.3063376,38.3575012 C39.3063376,38.5147745 39.4367118,38.6422618 39.5975464,38.6422618 L43.0526746,38.6422618 C43.2135092,38.6422618 43.3438834,38.5147745 43.3438834,38.3575012 L43.3438834,34.2759139 C43.3438834,34.1186406 43.2135092,33.9911533 43.0526746,33.9911533 L39.5975464,33.9911533 C39.4367118,33.9911533 39.3063376,34.1186463 39.3063376,34.2759139 Z M19.7661636,22.308577 L19.7661636,33.4824684 C19.7661636,33.790716 19.5128819,34.0329106 19.203257,34.0329106 L12.1752182,34.0329106 C11.8657332,34.0329106 11.6123175,33.790716 11.6123175,33.4824684 L11.6123175,22.308577 C11.6123175,22.0058423 11.8657332,21.7581347 12.1752182,21.7581347 L19.203257,21.7581347 C19.5128819,21.7581347 19.7661636,22.005848 19.7661636,22.308577 Z" id="Shape" fill="#FFFFFF"></path>
                        <rect id="Rectangle" fill="#FFFFFF" x="21.7696044" y="22.4271399" width="8.20684615" height="1"></rect>
                        <rect id="Rectangle" fill="#FFFFFF" x="25.2641099" y="25.8829943" width="4.71234066" height="1"></rect>
                        <rect id="Rectangle" fill="#FFFFFF" x="21.7696044" y="29.3388488" width="8.20684615" height="1"></rect>
                        <rect id="Rectangle" fill="#FFFFFF" x="25.2641099" y="32.7947032" width="4.71234066" height="1"></rect>
                        <path d="M38.908226,6.96550585 C38.1489224,6.96550585 37.5306745,6.36122112 37.5306745,5.6184573 C37.5306745,5.53976087 37.465269,5.47607701 37.3850701,5.47607701 C37.3048712,5.47607701 37.2394657,5.53976087 37.2394657,5.6184573 C37.2394657,6.36122681 36.6212178,6.96550585 35.8619142,6.96550585 C35.7817153,6.96550585 35.7163098,7.02918971 35.7163098,7.10788615 C35.7163098,7.18658258 35.7817153,7.25026644 35.8619142,7.25026644 C36.6212178,7.25026644 37.2394657,7.85455118 37.2394657,8.59704162 C37.2394657,8.67573805 37.3048712,8.73942191 37.3850701,8.73942191 C37.465269,8.73942191 37.5306745,8.67573805 37.5306745,8.59704162 C37.5306745,7.85455118 38.1489224,7.25026644 38.908226,7.25026644 C38.9884249,7.25026644 39.0538304,7.18658258 39.0538304,7.10788615 C39.0538304,7.02918971 38.9884191,6.96550585 38.908226,6.96550585 Z M37.3850643,7.93689824 C37.2171358,7.56819024 36.9144068,7.27206201 36.5371749,7.10788615 C36.9144126,6.94367611 37.2171358,6.64754788 37.3850643,6.27873736 C37.5529927,6.64754788 37.8558615,6.94367611 38.2329536,7.10788615 C37.8558615,7.27206201 37.5529927,7.56819024 37.3850643,7.93689824 Z" id="Shape" fill="#EF385A"></path>
                        <path d="M15.7849958,1.48942884 C15.0256922,1.48942884 14.4080092,0.885144103 14.4080092,0.142380292 C14.4080092,0.0636838569 14.3426037,0 14.2624048,0 C14.1822059,0 14.1168004,0.0636838569 14.1168004,0.142380292 C14.1168004,0.885149798 13.4985525,1.48942884 12.7392489,1.48942884 C12.65905,1.48942884 12.5936445,1.5531127 12.5936445,1.63180913 C12.5936445,1.71050557 12.65905,1.77418943 12.7392489,1.77418943 C13.4985525,1.77418943 14.1168004,2.37847416 14.1168004,3.12123798 C14.1168004,3.19993441 14.1822059,3.26361827 14.2624048,3.26361827 C14.3426037,3.26361827 14.4080092,3.19993441 14.4080092,3.12123798 C14.4080092,2.37846847 15.0256922,1.77418943 15.7849958,1.77418943 C15.8651947,1.77418943 15.9306002,1.71050557 15.9306002,1.63180913 C15.9306002,1.5531127 15.8651889,1.48942884 15.7849958,1.48942884 Z M14.2624048,2.46088957 C14.0944764,2.09211323 13.7916076,1.79601917 13.4145155,1.63180913 C13.7916076,1.4675991 14.0944764,1.17147087 14.2624048,0.802694523 C14.4303333,1.17147087 14.7330623,1.4675991 15.1101544,1.63180913 C14.7330623,1.79601917 14.4303333,2.09210753 14.2624048,2.46088957 Z" id="Shape" fill="#2F2666"></path>
                        <path d="M9.4369878,13.0333552 C8.67768418,13.0333552 8.05943626,12.4290705 8.05943626,11.6863067 C8.05943626,11.6076102 7.99403077,11.5439264 7.91383187,11.5439264 C7.83363297,11.5439264 7.76822747,11.6076102 7.76822747,11.6863067 C7.76822747,12.4290762 7.14997956,13.0333552 6.39067593,13.0333552 C6.31047703,13.0333552 6.24507154,13.0970391 6.24507154,13.1757355 C6.24507154,13.254432 6.31047703,13.3181158 6.39067593,13.3181158 C7.14997956,13.3181158 7.76822747,13.9224005 7.76822747,14.6651644 C7.76822747,14.7438608 7.83363297,14.8075447 7.91383187,14.8075447 C7.99403077,14.8075447 8.05943626,14.7438608 8.05943626,14.6651644 C8.05943626,13.9223949 8.67768418,13.3181158 9.4369878,13.3181158 C9.5171867,13.3181158 9.5825922,13.254432 9.5825922,13.1757355 C9.5825922,13.0970391 9.51718088,13.0333552 9.4369878,13.0333552 Z M7.91382604,14.0048501 C7.74589758,13.6360396 7.44316857,13.3399456 7.0659367,13.1757355 C7.4431744,13.0115255 7.74589758,12.7153973 7.91382604,12.3465867 C8.08175451,12.7153973 8.3846233,13.0115255 8.76171538,13.1757355 C8.3846233,13.3399456 8.08175451,13.6360339 7.91382604,14.0048501 Z" id="Shape" fill="#4AB74A"></path>
                        <path d="M43.1142595,19.6924131 C42.3549558,19.6924131 41.7367079,19.0881284 41.7367079,18.3453646 C41.7367079,18.2666681 41.6713024,18.2029843 41.5911035,18.2029843 C41.5109046,18.2029843 41.4454991,18.2666681 41.4454991,18.3453646 C41.4454991,19.0881341 40.8278162,19.6924131 40.0685125,19.6924131 C39.9883136,19.6924131 39.9229081,19.756097 39.9229081,19.8347934 C39.9229081,19.9134899 39.9883136,19.9771737 40.0685125,19.9771737 C40.8278162,19.9771737 41.4454991,20.5814585 41.4454991,21.3242223 C41.4454991,21.4029187 41.5109046,21.4666026 41.5911035,21.4666026 C41.6713024,21.4666026 41.7367079,21.4029187 41.7367079,21.3242223 C41.7367079,20.5814528 42.3549558,19.9771737 43.1142595,19.9771737 C43.1944584,19.9771737 43.2598638,19.9134899 43.2598638,19.8347934 C43.2598638,19.756097 43.1944525,19.6924131 43.1142595,19.6924131 Z M41.5910977,20.663908 C41.4231692,20.2950975 41.1204402,19.9990035 40.7433481,19.8347934 C41.1204402,19.6705834 41.4231692,19.3744552 41.5910977,19.0056446 C41.7590262,19.3744552 42.0618949,19.6705834 42.438987,19.8347934 C42.0618949,19.9990035 41.7590262,20.2950975 41.5910977,20.663908 Z" id="Shape" fill="#45B9EA"></path>
                        <path d="M28.5076458,13.6204006 L28.5076458,14.0728225 C28.5076458,15.0356151 27.7129312,15.8128349 26.7282262,15.8128349 L18.103973,15.8128349 C17.1194135,15.8128349 16.3245591,15.0356151 16.3245591,14.0728225 L16.3245591,13.6204006 C16.3245591,11.6890119 17.7955304,10.0997688 19.7055631,9.86778572 L22.4160996,11.9384052 L25.1267816,9.86778572 C27.0366745,10.0997688 28.5076458,11.6947812 28.5076458,13.6204006 Z" id="Path" fill="#EF385A"></path>
                        <path d="M22.3533382,2.1533994 C20.427988,2.1533994 18.867173,2.70352268 18.867173,5.00290744 C18.867173,7.30228081 20.427988,9.7632672 22.3533382,9.7632672 C24.2787001,9.7632672 25.8394977,7.30227511 25.8394977,5.00290744 C25.8394977,2.70352268 24.2787001,2.1533994 22.3533382,2.1533994 Z" id="Path" fill="#FED208"></path>
                        <path d="M23.562973,3.04284339 C23.562973,3.04284339 22.8440833,3.97177228 20.4306613,3.72071026 C20.4306613,3.72071026 18.9158573,5.15176318 19.0699009,6.48239244 C19.0699009,6.48239244 17.495067,3.60468171 19.5917936,1.52245537 C20.9916576,0.132276986 23.2566097,-0.0788103391 24.8884273,1.04376144 C26.0790926,1.86285248 26.9648682,3.35666664 25.7453208,6.05558189 C25.7453208,6.05558189 23.896739,4.37347264 23.562973,3.04284339 Z M5.40157945,43.430437 L0.291208791,43.430437 C0.130246044,43.430437 0,43.557799 0,43.7151975 C0,43.8725961 0.130246044,43.9999581 0.291208791,43.9999581 L5.40157945,43.9999581 C5.5625422,43.9999581 5.69278824,43.8725961 5.69278824,43.7151975 C5.69278824,43.557799 5.5625422,43.430437 5.40157945,43.430437 Z M52.7087912,43.430437 L47.5984205,43.430437 C47.4374578,43.430437 47.3072118,43.557799 47.3072118,43.7151975 C47.3072118,43.8725961 47.4374578,43.9999581 47.5984205,43.9999581 L52.7087912,43.9999581 C52.869754,43.9999581 53,43.8725961 53,43.7151975 C53,43.557799 52.869754,43.430437 52.7087912,43.430437 Z M45.5172969,43.430437 L45.1387837,43.430437 C45.3193681,43.1912836 45.4299925,42.8951212 45.4299925,42.5762236 L45.4299925,40.8391897 C45.4299925,36.6125339 45.4299925,33.1825243 45.4299925,26.6866001 C45.4299925,25.9006609 44.7777605,25.2627972 43.9739486,25.2627972 L37.2610734,25.2627972 L37.2610734,19.9260022 C37.2610734,18.827282 36.3470622,17.9335097 35.2231826,17.9335097 L9.6087544,17.9335097 C8.48543978,17.9335097 7.57142857,18.8272877 7.57142857,19.9260079 L7.57142857,35.8650943 C7.57142857,36.9638146 8.48543978,37.8578603 9.6087544,37.8578603 L18.7902181,37.8578603 L18.7902181,41.2093955 L15.2375582,42.0124033 C15.1036138,42.0465746 15.0103338,42.1604845 15.0103338,42.291463 L15.0103338,43.430437 L7.48270308,43.430437 C7.32174033,43.430437 7.19149429,43.557799 7.19149429,43.7151975 C7.19149429,43.8725961 7.32174033,44 7.48270308,44 C30.9027915,44 32.0320119,44 45.5173027,44 C45.6782655,44 45.8085115,43.8725961 45.8085115,43.7151975 C45.8085115,43.557799 45.6782597,43.430437 45.5172969,43.430437 Z M44.8475749,42.5762236 C44.8475749,43.0486926 44.4519969,43.4300212 43.9746591,43.430437 L32.889814,43.430437 C32.4126159,43.4300212 32.0168981,43.0486926 32.0168981,42.5762236 L32.0168981,40.8391897 L44.8475749,40.8391897 L44.8475749,42.5762236 L44.8475749,42.5762236 Z M32.0168981,28.4407025 L44.8475749,28.4407025 L44.8475749,40.2696685 L32.0168981,40.2696685 L32.0168981,28.4407025 Z M31.4344805,26.6866001 C31.4344805,28.9689049 31.4344805,33.4045579 31.4344805,35.6824603 L9.90052813,35.6879505 L9.8937022,20.1095418 L34.9325388,20.1031461 L34.9349558,25.2627972 L32.8905245,25.2627972 C32.0926881,25.2627972 31.4344805,25.9006609 31.4344805,26.6866001 Z M44.8475749,26.6866001 L44.8475749,27.8711813 L32.0168981,27.8711813 L32.0168981,26.6866001 C32.0168981,26.2138861 32.4130469,25.8323183 32.8905245,25.8323183 L43.9739486,25.8323183 C44.4515718,25.8323183 44.8475749,26.2138918 44.8475749,26.6866001 Z M8.15384615,35.8650943 L8.15384615,19.9260079 C8.15384615,19.1412476 8.80678868,18.5030365 9.6087544,18.5030365 L35.2231826,18.5030365 C36.0257133,18.5030365 36.6786558,19.1412476 36.6786558,19.9260079 L36.6786558,25.2628028 L35.5149564,25.2628028 L35.5149564,20.1031518 C35.5149564,19.7925293 35.2567357,19.5400264 34.938794,19.5400264 L9.8937022,19.5400264 C9.57633121,19.5400264 9.31811055,19.7925293 9.31811055,20.1031518 L9.31811055,35.6879562 C9.31811055,36.0038639 9.57121176,36.2510816 9.8937022,36.2510816 L31.4344805,36.2510816 L31.4344805,37.2883448 L9.6087544,37.2883448 C8.80678868,37.2883448 8.15384615,36.6498546 8.15384615,35.8650943 Z M31.4344805,37.8578603 L31.4344805,40.8391897 L31.4344805,42.5762236 C31.4344805,42.8951212 31.5452505,43.1912836 31.7315193,43.430437 L29.8270022,43.430437 L29.8270022,42.291463 C29.8270022,42.1604845 29.7338678,42.0465746 29.5999234,42.0124033 L26.0471179,41.2093955 L26.0471179,37.8578603 L31.4344805,37.8578603 Z M25.4647003,41.1524206 L19.3726357,41.1524206 L19.3726357,37.8606054 L25.4647003,37.8606054 L25.4647003,41.1524206 Z M15.5927514,42.5192828 L19.1105769,41.7219418 L25.7210747,41.7219418 L29.2445846,42.5192828 L29.2445846,43.4304313 L15.5927514,43.4304313 L15.5927514,42.5192828 Z M18.1030062,15.9568099 L26.7286455,15.9568099 C27.7885407,15.9568099 28.650507,15.108229 28.650507,14.0716948 L28.650507,13.6217845 C28.650507,11.645529 27.1421387,9.97113673 25.1443415,9.72624263 L25.0861871,9.72054172 L22.418668,11.7594389 L19.7454645,9.72054172 L19.6871645,9.72624263 C17.689513,9.97113103 16.180999,11.645529 16.180999,13.6217845 L16.180999,14.0716948 C16.180999,15.108229 17.0429654,15.9568099 18.1030062,15.9568099 Z M16.4722078,13.6217845 C16.4722078,11.805012 17.8409474,10.2672991 19.6638445,10.0167041 L22.418668,12.1182372 L25.1676615,10.0167041 C26.9965343,10.2672934 28.3592982,11.8050063 28.3592982,13.6217845 L28.3592982,14.0716948 C28.3592982,14.9544469 27.6312763,15.6720493 26.7286455,15.6720493 L18.1030062,15.6720493 C17.2002298,15.6720493 16.4722078,14.9544469 16.4722078,14.0716948 L16.4722078,13.6217845 Z" id="Shape" fill="#010101"></path>
                        <path d="M18.9416525,6.54830882 C19.4367657,8.33661098 20.7355453,9.9084951 22.3546836,9.9084951 C24.0961064,9.9084951 25.4647003,8.08602167 25.8608491,6.13826497 C25.8666791,6.13256406 25.8723693,6.12686315 25.8783391,6.11549551 C27.1771187,3.23938514 26.1054179,1.7073732 24.9697327,0.927129203 C24.2650308,0.437346695 23.4204088,0.181056474 22.541098,0.181056474 C21.3936131,0.181056474 20.2812421,0.631000977 19.4890959,1.42260692 C17.42163,3.47290591 18.813544,6.29774229 18.9358284,6.53122888 C18.9358225,6.54264208 18.9416525,6.54830882 18.9416525,6.54830882 Z M22.3546836,9.62373451 C20.8869797,9.62373451 19.6696745,8.10882529 19.2153713,6.42872646 C19.1164069,5.32385539 20.2404321,4.11647052 20.4850009,3.87158211 C20.7413753,3.89435157 20.9859441,3.90575338 21.2246829,3.90575338 C22.5177722,3.90575338 23.19333,3.53555323 23.4903688,3.30776185 C23.909692,4.48097546 25.2551115,5.79086275 25.5754703,6.09269188 C25.1909815,7.9037692 23.921352,9.62373451 22.3546836,9.62373451 Z M19.6929945,1.62196781 C20.4385065,0.887296893 21.4752273,0.465822753 22.541098,0.465822753 C23.3622544,0.465822753 24.1427464,0.705044424 24.8066384,1.16065566 C26.0762679,2.03770687 26.4724167,3.3248304 25.9831335,4.99922263 L25.9831335,5.00492354 C25.9073435,5.26121376 25.8083791,5.52887162 25.6919247,5.8079313 L25.6336247,5.75099058 C25.1503171,5.27257571 23.956332,4.01965762 23.7059332,3.01159376 C23.6883034,2.95461886 23.6476332,2.91478655 23.5951632,2.90338474 C23.5370088,2.89198293 23.4787088,2.91478655 23.4495588,2.95462456 C23.4437288,2.96032547 22.8962912,3.6209871 21.2246829,3.6209871 C20.9742841,3.6209871 20.7180553,3.60958529 20.4443365,3.58111493 C20.4035265,3.57541402 20.3627165,3.58681583 20.3278821,3.6209871 C20.2812421,3.66085928 19.3842957,4.52650868 19.0465925,5.54596865 C19.0116125,5.64847676 18.9824625,5.75099058 18.9591425,5.85349869 C18.8718381,5.60861028 18.7785581,5.28967843 18.7204037,4.9308744 C18.5573093,3.9569932 18.6329537,2.67557058 19.6929945,1.62196781 Z" id="Shape" fill="#010101"></path>
                        <ellipse id="Oval" fill="#010101" cx="21.0369231" cy="5.84097492" rx="1" ry="1"></ellipse>
                        <ellipse id="Oval" fill="#010101" cx="23.6694505" cy="5.84097492" rx="1" ry="1"></ellipse>
                        <path d="M22.3531169,8.4285203 C22.0579244,8.4285203 21.7621669,8.31867676 21.5375052,8.0987106 C21.4806263,8.04309116 21.4806263,7.95299291 21.5375052,7.89737347 C21.5943841,7.84175404 21.6865225,7.84175404 21.7434014,7.89737347 C22.0801145,8.22607262 22.626131,8.22607262 22.9628382,7.89737347 C23.0197171,7.84175404 23.1118556,7.84175404 23.1687345,7.89737347 C23.2256134,7.95299291 23.2256134,8.04309116 23.1687345,8.0987106 C22.9440669,8.31867676 22.6483095,8.4285203 22.3531169,8.4285203 Z" id="Path" fill="#010101"></path>
                    </g>
                </g>
            </g>
        </g>
    </g>
</svg>