<svg width="495" height="373" viewBox="0 0 495 373" xmlns="http://www.w3.org/2000/svg">
    <g fill-rule="nonzero" fill="none">
        <path d="M435.348 372.573s1.873-73.432-12.873-117.05c-14.746-43.626 31.44-89.81 6.4-153.134-18.468-46.704-124.139-131.218-234.59-92.534-83.852 29.368-45.39 69.867-61.992 113.419-16.603 43.56-40.805 91.668-49.554 101.248-8.749 9.58 8.15-36.976 8.19-57.696.042-20.72-62.459-1.427-83.292 30.152-20.842 31.579 6.408 131.341 17.325 151.03 10.918 19.688 37.519 24.565 37.519 24.565h372.867z" fill="#E6F2E6"/>
        <g transform="translate(20.7 40.543)">
            <path fill="#FBD0AA" d="M7.268 312.296v19.415H417.02l53.12-67.39v-23.274z"/>
            <path d="M417.021 332.456H7.268a.747.747 0 0 1-.748-.745v-19.415a.75.75 0 0 1 .631-.746l462.873-71.232a.767.767 0 0 1 .615.182.729.729 0 0 1 .266.563v23.275c0 .17-.056.335-.166.464l-53.119 67.389a.767.767 0 0 1-.599.265zM8.033 330.95h408.64l52.736-66.892V241.94l-461.376 71v18.008z" fill="#231F20"/>
            <path d="M94.336 132.459a18.592 18.592 0 0 1-15.977-8.117 31.826 31.826 0 0 1-4.19-12.673c-1.58-10.088-3.042-19.995-1.53-30.133a23.13 23.13 0 0 1 2.494-8.283 9.54 9.54 0 0 1 6.817-4.97 17.614 17.614 0 0 1 7.598-10.32 26.361 26.361 0 0 1 19.152-4.108 7.302 7.302 0 0 1-3.873-1.077 2.661 2.661 0 0 1-.865-3.545c.815-1.093 2.427-1.044 3.774-.845a53.076 53.076 0 0 1 19.652 6.991c-.366-2.435 2.31-4.473 4.788-4.406a12.156 12.156 0 0 1 6.65 3.048 31.527 31.527 0 0 1 8.762 8.962c2.527 4.39 2.16 11.248.365 15.87a7.242 7.242 0 0 1-2.776 3.71c-.964.713-2.261.978-3.209 1.657-1.928 1.358-1.413.546-2.244 2.965-1.796 5.218-2.76 10.171-5.553 15.075a94.296 94.296 0 0 1-9.477 13.252 50.638 50.638 0 0 1-19.618 14.91 28.353 28.353 0 0 1-10.74 2.037z" fill="#13375B"/>
            <path d="M94.535 133.287h-.216a19.357 19.357 0 0 1-16.625-8.498 32.702 32.702 0 0 1-4.323-13.004c-1.463-9.244-3.126-19.73-1.53-30.365a24.121 24.121 0 0 1 2.577-8.614 10.568 10.568 0 0 1 6.867-5.284 18.594 18.594 0 0 1 7.814-10.271 27.683 27.683 0 0 1 14.43-4.655 4.084 4.084 0 0 1-.73-1.657 2.89 2.89 0 0 1 .515-2.17c1.23-1.656 3.724-1.292 4.555-1.176a54.564 54.564 0 0 1 18.787 6.46c.183-.699.537-1.342 1.03-1.871a5.929 5.929 0 0 1 4.54-1.972c2.652.311 5.14 1.44 7.115 3.23a31.528 31.528 0 0 1 8.995 9.195c2.693 4.704 2.244 11.894.399 16.565a7.872 7.872 0 0 1-3.06 4.026 9.005 9.005 0 0 1-1.845.977 7.31 7.31 0 0 0-1.396.696l-.915.613c-.465.298-.465.298-.715 1.044l-.299.894c-.515 1.524-.98 3.015-1.43 4.506a50.002 50.002 0 0 1-4.173 10.718 96.633 96.633 0 0 1-9.576 13.368 51.122 51.122 0 0 1-19.95 15.059 29.186 29.186 0 0 1-10.84 2.186zm9.726-79.034a25.819 25.819 0 0 0-14.248 4.373 16.57 16.57 0 0 0-7.248 9.856.847.847 0 0 1-.715.663 8.677 8.677 0 0 0-6.202 4.473 22.898 22.898 0 0 0-2.377 8.117c-1.546 10.37.083 20.724 1.53 29.818a31.396 31.396 0 0 0 4.056 12.358 17.826 17.826 0 0 0 15.279 7.736 27.635 27.635 0 0 0 10.424-2.07 49.377 49.377 0 0 0 19.286-14.562 95.888 95.888 0 0 0 9.41-13.136 49.953 49.953 0 0 0 4.04-10.387c.449-1.507.914-3.015 1.446-4.572l.283-.861c.382-1.16.482-1.342 1.396-1.922l.865-.58a8.94 8.94 0 0 1 1.663-.861 8.074 8.074 0 0 0 1.512-.779 6.314 6.314 0 0 0 2.494-3.313c1.663-4.324 2.128-10.917-.299-15.158a30.217 30.217 0 0 0-8.545-8.713 11.506 11.506 0 0 0-6.169-2.883 4.28 4.28 0 0 0-3.325 1.409 2.562 2.562 0 0 0-.698 2.054.81.81 0 0 1-.349.824.817.817 0 0 1-.898.004 52.659 52.659 0 0 0-19.352-6.924c-1.563-.232-2.544 0-2.976.53a1.255 1.255 0 0 0-.2.927c.102.582.424 1.104.898 1.458.424.302.905.516 1.413.63.699 0 1.414.165 2.112.298a.836.836 0 1 1-.216 1.656 15.765 15.765 0 0 1-2.162-.298c-.615-.132-1.38-.165-2.128-.165z" fill="#231F20"/>
            <path d="M144.379 102.591s9.693 14.197 7.764 17.195c-1.929 2.999-8.48 1.11-8.48 1.11" fill="#FAE0B2"/>
            <path d="M147.787 122.304a17.249 17.249 0 0 1-4.356-.613.844.844 0 0 1-.565-1.027.812.812 0 0 1 1.03-.563c1.663.464 6.252 1.259 7.549-.762 1.014-1.657-3.242-9.674-7.748-16.284a.827.827 0 0 1 .225-1.151.834.834 0 0 1 1.155.223c2.344 3.43 9.842 14.91 7.764 18.107a5.746 5.746 0 0 1-5.054 2.07z" fill="#231F20"/>
            <path d="M142.118 83.69c6.101 4.837 4.489 15.257 4.522 22.015 0 9.531-.166 19.045-.499 28.543-.25 6.03-15.91 6.361-18.704 4.589l2.943 15.903-36.044-3.877V132.46s14.53-1.756 20.5-14.13c5.968-12.375 5.735-35.451 5.735-35.451s15.578-3.91 21.547.812z" fill="#FAE0B2"/>
            <path d="M130.38 155.569h-.083l-36.06-3.894a.813.813 0 0 1-.733-.812V132.46a.813.813 0 0 1 .732-.828c.133 0 14.148-1.856 19.851-13.65 5.703-11.795 5.653-34.788 5.653-35.086a.812.812 0 0 1 .632-.812c.648-.166 16.043-3.96 22.261.96 5.403 4.275 5.137 12.441 4.988 19.001v3.661c0 9.493-.117 19.1-.499 28.576a5.155 5.155 0 0 1-3.325 4.307c-4.107 2.154-11.638 2.402-15.18 1.524l2.594 14.512a.876.876 0 0 1-.216.712.852.852 0 0 1-.615.233zm-35.213-5.451 34.199 3.678-2.743-14.81a.794.794 0 0 1 .349-.828.867.867 0 0 1 .914 0c1.796 1.143 10.59 1.308 14.963-1.028 1.53-.795 2.328-1.772 2.378-2.899.382-9.442.548-19.033.499-28.492v-3.744c.199-6.18.448-13.882-4.307-17.643-4.987-3.893-17.257-1.44-20.183-.795 0 3.943-.35 23.788-5.819 35.152-5.47 11.365-17.324 13.932-20.416 14.479l.166 16.93z" fill="#231F20"/>
            <path d="M126.157 108.92a12.831 12.831 0 0 0-2.76-6.495 18.55 18.55 0 0 0-3.508-4.274 6.333 6.333 0 0 0-5.17-1.49 5.864 5.864 0 0 0-3.708 2.998 11.281 11.281 0 0 0-1.13 4.738 20.407 20.407 0 0 0 9.692 17.973l-.532-.563" fill="#FAE0B2"/>
            <path d="M119.573 123.15a.8.8 0 0 1-.498 0 21.35 21.35 0 0 1-10.092-18.72 11.81 11.81 0 0 1 1.23-5.086 6.645 6.645 0 0 1 4.256-3.429 7 7 0 0 1 5.87 1.657 18.9 18.9 0 0 1 3.69 4.456 13.574 13.574 0 0 1 2.893 6.924.83.83 0 0 1-.798.845.863.863 0 0 1-.865-.795 12.451 12.451 0 0 0-2.61-6.063 17.82 17.82 0 0 0-3.325-4.092 5.416 5.416 0 0 0-4.456-1.325 4.984 4.984 0 0 0-3.158 2.584 10.158 10.158 0 0 0-1.031 4.374 19.756 19.756 0 0 0 8.313 16.565.816.816 0 0 1 .681.249l.532.563a.81.81 0 0 1 0 1.077.8.8 0 0 1-.632.215z" fill="#231F20"/>
            <ellipse fill="#231F20" transform="rotate(-3.85 141.473 95.238)" cx="141.473" cy="95.238" rx="1.347" ry="3.396"/>
            <path d="m86.472 157.937 2.544-13.02 46.319 2.815 2.909 9.393s-25.437 13.12-51.772.812z" fill="#231F20"/>
            <path d="M110.513 164.017a57.583 57.583 0 0 1-24.39-5.268.828.828 0 0 1-.466-.911l2.544-13.038a.798.798 0 0 1 .865-.662l46.318 2.816a.814.814 0 0 1 .749.58l2.892 9.409a.81.81 0 0 1-.415.977 68.373 68.373 0 0 1-28.097 6.097zm-23.027-6.51c23.276 10.452 45.82 1.076 49.877-.763l-2.51-8.183-45.023-2.734-2.344 11.68z" fill="#231F20"/>
            <path d="M146.39 126.727s-2.593 4.97-10.706 0" fill="#FAE0B2"/>
            <path d="M142.068 129.775a13.465 13.465 0 0 1-6.817-2.335.843.843 0 0 1-.181-1.095.85.85 0 0 1 1.063-.33c2.86 1.772 5.37 2.435 7.248 1.938a3.773 3.773 0 0 0 2.278-1.656.834.834 0 0 1 1.122-.357c.409.21.569.711.358 1.119a5.469 5.469 0 0 1-3.325 2.418 6.555 6.555 0 0 1-1.746.298z" fill="#231F20"/>
            <path fill="#AE9565" d="M422.64 298.993H.75l56.461-61.723 416.27-3.512z"/>
            <path d="M422.64 299.739H.75a.715.715 0 0 1-.681-.447.727.727 0 0 1 .133-.812l56.527-61.707a.716.716 0 0 1 .549-.249l416.27-3.528a.782.782 0 0 1 .682.414.826.826 0 0 1-.083.812l-50.824 65.235a.766.766 0 0 1-.682.282zM2.48 298.23h419.778l49.661-63.711-414.359 3.512-55.08 60.2z" fill="#231F20"/>
            <path fill="#CCE0E6" d="m299.529 287 32.303-43.352H181.637l-45.006 45.44z"/>
            <path d="M136.631 289.916a.815.815 0 0 1-.764-.497.841.841 0 0 1 .166-.912l45.022-45.44a.783.783 0 0 1 .582-.248h150.245c.315 0 .603.178.743.458.141.28.11.617-.078.868l-32.353 43.335a.849.849 0 0 1-.649.348l-162.93 2.088h.016zm45.355-45.44-43.343 43.766 160.47-2.07 31.106-41.696H181.986z" fill="#231F20"/>
            <path fill="#CCE0E6" d="m318.88 250.49-22.41 29.652H151.726l33.85-28.41z"/>
            <path d="M296.47 280.97H151.726a.826.826 0 0 1-.532-1.474l33.833-28.41a.9.9 0 0 1 .532-.183l133.304-1.242a.798.798 0 0 1 .748.447.842.842 0 0 1 0 .878l-22.411 29.653a.85.85 0 0 1-.732.331zm-142.465-1.657h142.049l21.148-27.979-131.342 1.21-31.855 26.77z" fill="#13181D"/>
            <path fill="#FBD0AA" d="M.751 298.993h421.874v13.302H.751z"/>
            <path d="M422.64 313.058H.75a.763.763 0 0 1-.748-.762v-13.253c0-.414.333-.753.749-.762h421.89a.763.763 0 0 1 .748.762v13.253a.763.763 0 0 1-.748.762zM1.516 311.534h420.361v-11.795H1.516v11.795z" fill="#231F20"/>
            <path d="M259.029 272.803c5.769 1.441 13.3-4.274 16.343-8.481a4.582 4.582 0 0 1 1.745-1.657 3.97 3.97 0 0 1 1.53-.199 52.235 52.235 0 0 0 9.76-1.077c3.125-.662 6.65-1.954 7.713-4.97 1.064-3.014-.631-6.31-3.059-8.282-5.52-4.638-13.483-4.39-20.582-5.682a26.193 26.193 0 0 0-8.895-.862 10.957 10.957 0 0 0-6.8 4.639 30.939 30.939 0 0 1-5.885 5.168 447.29 447.29 0 0 0-9.344 7.521c4.988 4.191 9.976 9.94 15.595 13.253a7.333 7.333 0 0 0 1.879.63z" fill="#FAE0B2"/>
            <path d="M260.957 273.897a8.463 8.463 0 0 1-2.144-.266 7.83 7.83 0 0 1-2.079-.844 64.028 64.028 0 0 1-10.607-8.664c-1.762-1.657-3.325-3.214-5.104-4.622a.827.827 0 0 1 0-1.276 413.513 413.513 0 0 1 9.36-7.52l1.214-.928a23.628 23.628 0 0 0 4.522-4.092c1.7-2.547 4.33-4.33 7.332-4.97 2.54-.279 5.11-.088 7.581.564l1.663.298c1.662.298 3.441.53 5.154.745 5.62.696 11.422 1.425 15.81 5.12 2.594 2.153 4.623 5.863 3.326 9.276-1.048 2.7-3.758 4.473-8.313 5.433a52.302 52.302 0 0 1-9.975 1.094 3.453 3.453 0 0 0-1.23.132c-.524.311-.959.75-1.264 1.276l-.133.182c-2.926 3.943-9.344 9.062-15.113 9.062zm-1.662-1.872c5.187 1.308 12.436-4.01 15.478-8.15l.116-.166a4.831 4.831 0 0 1 1.979-1.84 4.77 4.77 0 0 1 1.812-.264c3.236-.045 6.46-.4 9.626-1.06 3.957-.829 6.285-2.27 7.1-4.407 1.03-2.634-.682-5.632-2.81-7.421-4.024-3.313-9.577-4.059-14.963-4.738-1.663-.215-3.525-.447-5.237-.762l-1.663-.298a19.12 19.12 0 0 0-7.016-.497 10.092 10.092 0 0 0-6.301 4.323 24.806 24.806 0 0 1-4.838 4.407l-1.18.911a387.834 387.834 0 0 0-8.563 6.858c1.48 1.276 2.96 2.684 4.406 4.042a63.13 63.13 0 0 0 10.325 8.449c.519.3 1.079.522 1.662.662l.067-.05z" fill="#231F20"/>
            <path d="M29.197 321.075s-6.75-142.232 29.693-161.481c11.339-5.997 102.813-10.089 124.41 8.017 21.596 18.107 23.391 91.708 23.391 91.708l40.168-9.476 16.077 29.023s-59.17 27.102-70.493 32.353c-19.352 8.962-163.246 9.856-163.246 9.856z" stroke="#13181D" fill="#FE875E"/>
            <path d="M151.727 259.667a.833.833 0 0 1-.748-.912l7.399-80.807a.834.834 0 0 1 1.662.15l-7.481 80.89a.83.83 0 0 1-.832.679z" fill="#231F20"/>
            <path d="M128.568 183.398H45.573a42.544 42.544 0 0 0-31.96 14.439 42.222 42.222 0 0 0-10.152 33.47l13.4 100.404h168.716l-14.963-111.57c-2.806-21.01-20.775-36.712-42.046-36.743z" fill="#13181D"/>
            <path d="M215.603 284.283c5.353 0 5.353-8.283 0-8.283-5.354 0-5.354 8.283 0 8.283z" stroke="#13181D" fill="#CCE6CC"/>
            <path d="M216.8 284.283c5.353 0 5.37-8.283 0-8.283s-5.354 8.283 0 8.283z" stroke="#13181D" fill="#CCE6CC"/>
            <path fill="#FBD0AA" d="m422.64 312.296 50.842-66.793v-11.745l-50.841 65.235z"/>
            <path d="M422.64 313.058h-.249a.73.73 0 0 1-.515-.713v-13.252a.695.695 0 0 1 .166-.464l50.841-65.236a.733.733 0 0 1 .832-.265c.311.107.519.401.515.73v11.744a.777.777 0 0 1-.15.464l-50.757 66.694a.783.783 0 0 1-.682.298zm.749-13.816v10.8l49.328-64.788v-9.293l-49.328 63.281zM417.021 332.456a.764.764 0 0 1-.764-.745v-19.415a.78.78 0 0 1 .764-.762.763.763 0 0 1 .749.762v19.415a.747.747 0 0 1-.749.745z" fill="#231F20"/>
            <path d="M205.278 23.507h266.84v142.249c0 3.248-2.642 5.88-5.902 5.88H211.18a5.913 5.913 0 0 1-4.173-1.722 5.87 5.87 0 0 1-1.729-4.158V23.506z" stroke="#13181D" stroke-width=".9"/>
            <path d="M466.2 172.399H211.18c-3.672 0-6.65-2.967-6.65-6.627V23.507c0-.421.343-.762.765-.762h266.84a.78.78 0 0 1 .765.762v142.249a6.614 6.614 0 0 1-1.96 4.714 6.664 6.664 0 0 1-4.74 1.929zM206.026 24.269v141.487c.01 2.83 2.314 5.119 5.154 5.119H466.2c2.84 0 5.145-2.29 5.154-5.12V24.27H206.026z" fill="#231F20"/>
            <path d="M211.18.729H466.2c3.26 0 5.902 2.633 5.902 5.88v17.295H205.278V6.626a5.87 5.87 0 0 1 1.723-4.169 5.913 5.913 0 0 1 4.18-1.728z" fill="#004000"/>
            <path d="M472.119 24.65h-266.84a.75.75 0 0 1-.766-.746V6.626c0-3.66 2.978-6.626 6.65-6.626H466.2c3.673 0 6.65 2.967 6.65 6.626v17.278a.764.764 0 0 1-.731.746zm-266.01-1.508h265.245V6.577c0-2.837-2.308-5.136-5.154-5.136H211.18c-2.846 0-5.154 2.3-5.154 5.136l.084 16.565z" fill="#231F20"/>
            <path fill="#CCE6CC" d="M218.08 42.126h126.936v82.845H218.08z"/>
            <path d="M345 125.816H218.08a.83.83 0 0 1-.831-.828V42.16a.83.83 0 0 1 .831-.829H345c.459 0 .83.371.83.829v82.828a.83.83 0 0 1-.83.828zM218.91 124.16h125.257V42.988H218.911v81.172z" fill="#231F20"/>
            <ellipse fill="#269326" cx="233.159" cy="72.408" rx="4.605" ry="4.589"/>
            <path d="M233.16 77.809a5.437 5.437 0 0 1-5.025-3.348 5.403 5.403 0 0 1 1.186-5.905 5.451 5.451 0 0 1 5.93-1.164 5.417 5.417 0 0 1 3.345 5.016c-.01 2.986-2.44 5.4-5.437 5.4zm0-9.16a3.767 3.767 0 0 0-3.775 3.76c0 2.076 1.69 3.76 3.774 3.76a3.767 3.767 0 0 0 3.774-3.76c0-2.077-1.69-3.76-3.774-3.76z" fill="#231F20"/>
            <path d="M330.22 73.237h-82.796a.846.846 0 0 1-.831-.829.83.83 0 0 1 .831-.828h82.795c.46 0 .832.371.832.828a.83.83 0 0 1-.832.829z" fill="#269326"/>
            <ellipse fill="#269326" cx="233.159" cy="88.643" rx="4.605" ry="4.589"/>
            <path d="M233.16 94.043a5.437 5.437 0 0 1-5.025-3.348 5.403 5.403 0 0 1 1.186-5.905 5.451 5.451 0 0 1 5.93-1.164 5.417 5.417 0 0 1 3.345 5.017c-.01 2.985-2.44 5.4-5.437 5.4zm0-9.16a3.767 3.767 0 0 0-3.775 3.76c0 2.077 1.69 3.76 3.774 3.76a3.767 3.767 0 0 0 3.774-3.76c0-2.077-1.69-3.76-3.774-3.76z" fill="#231F20"/>
            <path d="M310.452 89.471h-62.978a.83.83 0 0 1-.831-.828.83.83 0 0 1 .83-.828h62.979c.459 0 .83.37.83.828a.83.83 0 0 1-.83.828z" fill="#269326"/>
            <ellipse fill="#269326" cx="233.159" cy="104.877" rx="4.605" ry="4.589"/>
            <path d="M233.16 110.294c-3.003 0-5.437-2.425-5.437-5.417s2.434-5.417 5.436-5.417c3.003 0 5.437 2.425 5.437 5.417-.01 2.988-2.438 5.408-5.437 5.417zm0-9.177a3.774 3.774 0 0 0-3.487 2.321 3.75 3.75 0 0 0 .818 4.098 3.784 3.784 0 0 0 4.113.815 3.76 3.76 0 0 0 2.33-3.474c0-2.077-1.69-3.76-3.775-3.76z" fill="#231F20"/>
            <path d="M321.375 105.705h-73.901a.83.83 0 0 1-.831-.828.83.83 0 0 1 .83-.828h73.902c.459 0 .83.37.83.828a.83.83 0 0 1-.83.828zM228.554 53.855h43.775v6.759h-43.775z" fill="#269326"/>
            <path d="M311.482 120.631c-1.662-2.07-3.59-4.721-5.303-6.759-.732-9.94-2.976-15.555-4.256-16.267-1.83-1.01-3.924.58-5.853 1.375a1.868 1.868 0 0 1-1.113.165 2.096 2.096 0 0 1-.765-.497c-4.456-3.926-8.413-11.33-11.339-12.142-1.962-.547-4.605 3.412-.499 7.918 2.295 2.518 6.9 7.173 6.983 7.471.083.299-2.012 6.527-2.31 8.979-.55 4.49 12.751 18.918 15.494 22.314l8.961-12.557z" fill="#FAE0B2"/>
            <path d="M302.521 134.016a.833.833 0 0 1-.648-.298c-.466-.58-1.214-1.458-2.162-2.551-6.783-7.885-13.982-16.566-13.5-20.392a45.29 45.29 0 0 1 1.547-6.08c.299-.977.615-2.07.731-2.568-.465-.53-1.795-1.921-2.992-3.164a233.934 233.934 0 0 1-3.758-3.976c-2.876-3.147-2.776-6.096-1.662-7.819a2.78 2.78 0 0 1 3.042-1.457c1.912.513 3.924 3.114 6.268 6.129a46.533 46.533 0 0 0 5.403 6.196c.126.127.272.233.433.314.202-.004.402-.055.581-.149.4-.165.815-.364 1.247-.58 1.663-.811 3.508-1.656 5.32-.745 1.813.911 3.94 7.007 4.656 16.665a101.675 101.675 0 0 1 2.776 3.528c.931 1.226 1.663 2.104 2.378 3.032.23.298.23.713 0 1.01l-8.962 12.557a.782.782 0 0 1-.648.348h-.05zm-20.034-46.732a1.413 1.413 0 0 0-1.047.746c-.698 1.16-.732 3.313 1.53 5.848.997 1.093 2.427 2.584 3.74 3.942 3.325 3.479 3.325 3.545 3.425 3.843.1.299 0 .713-.781 3.496a48.577 48.577 0 0 0-1.497 5.814c-.415 3.313 9.061 14.412 13.118 19.117l1.496 1.74 7.964-11.166c-.648-.812-1.33-1.656-1.995-2.584-.981-1.276-1.979-2.568-2.91-3.678a.727.727 0 0 1-.182-.48c-.732-9.94-3.01-15.141-3.841-15.588-.831-.448-2.36 0-3.774.778-.449.216-.898.448-1.347.63a2.502 2.502 0 0 1-1.662.199 2.728 2.728 0 0 1-1.13-.68 47.578 47.578 0 0 1-5.604-6.41c-1.978-2.535-4.006-5.169-5.403-5.55l-.1-.017z" fill="#231F20"/>
            <path d="M310.269 115.545s28.912 25.793 31.888 25.362c4.987-6.41 22.727-32.965 22.727-32.965 4.505-5.914 17.49-10.486 36.06-7.952 0 0 41.199.845 49.179 13.899 4.589 7.52 8.496 27.549 11.04 57.151H323.718c-11.206-16.88-30.242-39.393-30.242-39.393l16.792-16.102z" stroke="#13181D" fill="#F8C558"/>
            <path fill="#F47458" d="m394.427 106.12.915 56.025 24.739-59.09z"/>
            <path d="M395.342 162.907h-.167a.829.829 0 0 1-.665-.812l-.914-56.025a.813.813 0 0 1 .732-.828l25.67-2.999a.783.783 0 0 1 .748.315c.186.235.23.551.116.828l-24.739 59.09a.832.832 0 0 1-.781.43zm-.083-56.108.847 51.353 22.644-54.12-23.491 2.767z" fill="#231F20"/>
            <path d="m381.044 44.827.116-.216c2.56-4.24 8.313-8.498 12.951-10.502 10.907-4.771 24.656-2.088 33.5 5.665a19.868 19.868 0 0 1 6.651 10.735c1.03 3.975 3.475 8.034 4.24 12.093.565 3.015-.532 6.096-.433 9.177.217 6.626 5.82 11.745 11.505 15.141-8.312 7.57-20.15 9.94-31.405 10.602a141.968 141.968 0 0 1-57.924-8.614 23.824 23.824 0 0 0 9.177-18.653c0-2.203-.266-4.589.981-6.394 1.247-1.806 3.093-2.27 4.589-3.496 4.788-3.876 3.292-10.685 6.052-15.538z" fill="#13375B"/>
            <path d="M409.806 98.599a143.641 143.641 0 0 1-49.794-8.913.845.845 0 0 1-.532-.662.86.86 0 0 1 .316-.779 23.046 23.046 0 0 0 8.862-17.99v-.944a9.777 9.777 0 0 1 1.147-5.93 9.32 9.32 0 0 1 3.042-2.502 16.76 16.76 0 0 0 1.663-1.143c2.577-2.12 3.142-5.218 3.74-8.515a21.792 21.792 0 0 1 2.046-6.808l.714.414-.681-.464v-.182c2.677-4.44 8.728-8.797 13.3-10.834 10.89-4.771 25.038-2.386 34.382 5.814a20.846 20.846 0 0 1 6.983 11.132 39.912 39.912 0 0 0 1.928 5.334c1 2.192 1.774 4.478 2.311 6.826.248 1.85.203 3.729-.133 5.566-.199 1.232-.293 2.479-.282 3.727.2 6.626 6.151 11.596 11.105 14.462a.778.778 0 0 1 .4.63.81.81 0 0 1-.267.695c-7.132 6.494-17.274 9.94-31.92 10.817-2.66.166-5.504.249-8.33.249zm-47.848-9.94a141.788 141.788 0 0 0 56.227 7.985c13.683-.828 23.276-3.91 30.076-9.658-5.088-3.213-10.74-8.283-10.956-15.24-.01-1.337.09-2.672.299-3.992.305-1.64.355-3.316.15-4.97a35.677 35.677 0 0 0-2.212-6.494 41.135 41.135 0 0 1-2.011-5.55 19.091 19.091 0 0 0-6.468-10.303c-8.878-7.786-22.295-10.056-32.62-5.533-4.355 1.921-10.074 6.03-12.568 10.171l-.083.15-.748-.365.715.43a20.057 20.057 0 0 0-1.862 6.279c-.616 3.429-1.28 6.99-4.323 9.492-.594.47-1.222.896-1.879 1.276a8.307 8.307 0 0 0-2.543 2.037 8.389 8.389 0 0 0-.848 4.97v.977c-.07 7-3.1 13.648-8.346 18.305v.033z" fill="#231F20"/>
            <path d="M388.708 71.083a9.928 9.928 0 0 0-1.978-3.644 3.333 3.333 0 0 0-3.791-.895 3.18 3.18 0 0 0-1.663 2.568 7.001 7.001 0 0 0 .516 3.081 12.101 12.101 0 0 0 3.01 4.97 7.146 7.146 0 0 0 5.286 2.07" fill="#FAE0B2"/>
            <path d="M389.756 80.078a8.128 8.128 0 0 1-5.47-2.302 13.244 13.244 0 0 1-3.226-5.268 8.256 8.256 0 0 1-.548-3.446 4.073 4.073 0 0 1 2.045-3.313 4.25 4.25 0 0 1 4.771 1.06 10.558 10.558 0 0 1 2.162 3.926.826.826 0 0 1-.483 1.077.865.865 0 0 1-1.08-.497 9.25 9.25 0 0 0-1.78-3.313 2.633 2.633 0 0 0-2.842-.729 2.45 2.45 0 0 0-1.147 1.905c-.035.935.13 1.867.482 2.733a11.373 11.373 0 0 0 2.793 4.606 6.313 6.313 0 0 0 4.638 1.905c.45-.02.838.315.882.762a.826.826 0 0 1-.765.894h-.432z" fill="#231F20"/>
            <path d="m396.073 89.637-1.662 16.565s.798 9.393 11.139 7.521a20.943 20.943 0 0 0 14.514-10.585l1.596-28.758c0-1.226-4.406-6.262-3.209-16.732a25.74 25.74 0 0 1-18.005-10.204s-4.805 5.914-6.817 7.736a24.965 24.965 0 0 0-4.256 4.622c-3.192 4.804-3.524 11.43-2.76 16.914.615 4.572 3.708 13.02 9.46 12.92z" fill="#FAE0B2"/>
            <path d="M402.99 114.717a9.2 9.2 0 0 1-5.753-1.789 10.26 10.26 0 0 1-3.641-6.726l1.58-15.787c-5.537-.695-8.696-8.531-9.41-13.584-.583-4.042-.965-11.695 2.892-17.493a25.214 25.214 0 0 1 4.39-4.77c1.945-1.773 6.65-7.588 6.65-7.638a.95.95 0 0 1 .698-.314.865.865 0 0 1 .648.38 25.158 25.158 0 0 0 17.457 9.89c.222.03.424.143.565.315.135.175.2.393.183.613a24.424 24.424 0 0 0 2.51 14.66c.376.611.614 1.295.699 2.005l-1.563 28.692a.71.71 0 0 1 0 .315 21.607 21.607 0 0 1-15.112 11.032c-.923.157-1.858.223-2.794.2zm-7.731-8.515a7.732 7.732 0 0 0 3.483 5.76 7.788 7.788 0 0 0 6.691.867 20.213 20.213 0 0 0 13.816-9.94c.133-2.385 1.53-28.31 1.546-28.51a10.947 10.947 0 0 0-.532-1.192 26.159 26.159 0 0 1-2.76-14.76 26.625 26.625 0 0 1-17.124-9.575c-1.413 1.657-4.622 5.533-6.218 6.99a23.989 23.989 0 0 0-4.09 4.358c-3.54 5.35-3.175 12.54-2.626 16.35.548 3.81 3.325 12.209 8.562 12.209h.116a.766.766 0 0 1 .599.265c.17.17.25.409.216.646l-1.663 16.566-.016-.034z" fill="#231F20"/>
            <path d="M402.99 61.293s-6.069 7.438-4.988 8.929c1.08 1.49 4.771.91 4.771.91" fill="#FAE0B2"/>
            <path d="M401.277 72.077a4.848 4.848 0 0 1-3.874-1.358c-1.28-1.657 1.995-6.328 4.988-9.94a.833.833 0 0 1 1.164-.132.843.843 0 0 1 .116 1.176c-2.81 3.446-5.087 7.156-4.888 7.968.599.762 2.926.696 3.94.53a.843.843 0 0 1 .787.3.836.836 0 0 1-.52 1.357c-.569.07-1.14.102-1.713.1z" fill="#231F20"/>
            <ellipse fill="#231F20" transform="rotate(-82.38 395.367 63.159)" cx="395.367" cy="63.159" rx="1.723" ry="1"/>
            <ellipse fill="#231F20" transform="rotate(-89.33 410.575 62.775)" cx="410.575" cy="62.775" rx="1.723" ry="1"/>
            <path d="M416.839 68.068a11.578 11.578 0 0 1 1.862-3.926 5.276 5.276 0 0 1 4.289-2.186c1.044.05 2.01.567 2.627 1.408.37.597.598 1.272.665 1.97.549 3.679-.682 8.45-4.14 10.338a3.652 3.652 0 0 1-3.907 0" fill="#FAE0B2"/>
            <path d="M419.997 77.097a3.6 3.6 0 0 1-2.227-.713.827.827 0 0 1 .166-1.458.834.834 0 0 1 .848.15c.943.521 2.1.47 2.992-.133 3.126-1.657 4.24-6.063 3.741-9.492a4.032 4.032 0 0 0-.532-1.657 2.613 2.613 0 0 0-1.978-1.043 4.444 4.444 0 0 0-3.608 1.872 11.113 11.113 0 0 0-1.663 3.644.848.848 0 0 1-1.03.563.83.83 0 0 1-.566-1.043 12.339 12.339 0 0 1 2.012-4.191 6.076 6.076 0 0 1 4.988-2.485 4.21 4.21 0 0 1 3.325 1.756c.434.699.706 1.485.798 2.302.582 4.01-.798 9.128-4.572 11.199-.82.47-1.748.722-2.694.729zM364.817 166.485a.83.83 0 0 1-.814-.812c0-1.226 6.267-34.556 7.514-41.232a.846.846 0 0 1 1.663.315c-2.96 15.787-7.415 39.757-7.482 40.934a.827.827 0 0 1-.88.795zM431.502 169.102a.83.83 0 0 1-.831-.828v-45.29a.83.83 0 0 1 .831-.829c.46 0 .832.371.832.828v45.29a.83.83 0 0 1-.832.83z" fill="#231F20"/>
            <path d="m408.858 73.27-13.516 1.275s0 9.609 5.719 8.979c5.72-.63 7.299-4.324 7.797-10.254z" fill="#FAE0B2"/>
            <path d="M400.529 84.385a4.565 4.565 0 0 1-3.11-1.176c-2.859-2.534-2.909-8.415-2.909-8.664a.813.813 0 0 1 .749-.828l13.516-1.259a.833.833 0 0 1 .915.878c-.383 5.268-1.663 10.254-8.53 11.016l-.631.033zm-4.323-9.094c.1 1.557.532 5.102 2.328 6.626.658.594 1.55.861 2.427.729 4.456-.48 6.401-2.816 6.983-8.498l-11.738 1.143z" fill="#231F20"/>
            <path d="M396.073 89.637a39.661 39.661 0 0 0 15.811-2.932s-9.327 11.215-16.542 15.373l.731-12.441z" fill="#FAE0B2"/>
            <path d="M395.342 102.906a.833.833 0 0 1-.832-.878l.749-12.44a.76.76 0 0 1 .864-.78 39.461 39.461 0 0 0 15.429-2.865.817.817 0 0 1 1.015.237.81.81 0 0 1-.051 1.038c-.382.464-9.493 11.397-16.759 15.572a.984.984 0 0 1-.415.116zm1.53-12.424-.616 10.038a79.84 79.84 0 0 0 12.852-11.894 43.37 43.37 0 0 1-12.237 1.856zM388.858 139.715a.8.8 0 0 1-.599-.265l-10.823-11.331a.826.826 0 0 1 .133-1.243l9.859-6.725-9.876-7.306a.827.827 0 0 1 0-1.342l12.12-8.282a.834.834 0 0 1 1.34.6.827.827 0 0 1-.392.758l-11.172 7.67 9.892 7.322c.224.152.35.41.332.68a.778.778 0 0 1-.365.662l-9.976 6.825 10.142 10.618a.827.827 0 0 1 0 1.176.867.867 0 0 1-.615.183zM409.54 140.477a.849.849 0 0 1-.715-.414.81.81 0 0 1 .3-1.127l15.677-9.326-8.579-9.774a.81.81 0 0 1-.2-.712.845.845 0 0 1 .466-.597l10.724-4.97-6.201-6.626a.827.827 0 0 1 0-1.176.85.85 0 0 1 1.18 0l6.966 7.538c.18.196.255.468.2.728a.78.78 0 0 1-.466.58l-10.74 4.97 8.512 9.625a.826.826 0 0 1 .2.679.812.812 0 0 1-.4.58l-16.442 9.906a.986.986 0 0 1-.482.116zM299.146 113.988a.866.866 0 0 1-.548-.199 7.116 7.116 0 0 1-2.51-4.621 5.432 5.432 0 0 1-5.072 1.656 2.176 2.176 0 0 1-1.779-1.474c-.964-3.032 4.988-9.658 6.218-10.95a.833.833 0 0 1 1.18 0 .827.827 0 0 1 0 1.176c-3.158 3.313-6.284 7.919-5.835 9.327 0 .082.083.265.532.347 2.394.53 4.14-1.656 5.088-3.313.22-.666.528-1.301.914-1.888a.833.833 0 0 1 1.064-.265.827.827 0 0 1 .416 1.01c-.236.618-.52 1.216-.848 1.79a5.405 5.405 0 0 0 1.662 5.98.843.843 0 0 1 0 1.176.849.849 0 0 1-.482.248z" fill="#231F20"/>
            <ellipse fill="#CCE6CC" cx="229.086" cy="12.325" rx="3.275" ry="3.263"/>
            <ellipse fill="#CCE6CC" cx="244.531" cy="12.325" rx="3.275" ry="3.263"/>
            <ellipse fill="#CCE6CC" cx="259.976" cy="12.325" rx="3.275" ry="3.263"/>
        </g>
    </g>
</svg>
