<svg width="1024" height="126" viewBox="0 0 1024 126" fill="none" xmlns="http://www.w3.org/2000/svg">
<path d="M77.2082 97.8619C81.7866 97.9965 85.3751 94.4969 85.3751 89.5166C85.3751 85.7477 83.3952 82.6519 80.178 81.0367L42.8085 62.8654L80.178 44.6941C83.3952 43.0789 85.3751 40.3869 85.3751 36.4834C85.3751 31.6377 81.7866 27.8689 77.8269 28.0035C76.0946 28.0035 74.7334 28.5419 73.2485 29.3495L31.5481 50.8858C26.846 53.3087 24 57.0775 24 62.327V63.673C24 68.9225 26.846 72.6913 31.5481 75.1142L73.2485 96.6505C74.4859 97.3235 75.8471 97.8619 77.2082 97.8619Z" fill="#CB1043"/>
<path d="M113.792 28.1381C109.213 28.0035 105.625 31.5031 105.625 36.4834C105.625 40.2523 107.605 43.3481 110.822 44.9633L148.192 63.1346L110.822 81.3059C107.605 82.9211 105.625 85.6131 105.625 89.5166C105.625 94.3623 109.213 98.1311 113.173 97.9965C114.905 97.9965 116.267 97.4581 117.751 96.6505L159.452 75.1142C164.154 72.6913 167 68.9225 167 63.673V62.327C167 57.0775 164.154 53.3087 159.452 50.8858L117.751 29.3495C116.514 28.6765 115.153 28.1381 113.792 28.1381Z" fill="#CB1043"/>
<path d="M197.46 77.995C197.46 80.79 199.67 83 202.465 83H225.995C228.53 83 230.545 80.985 230.545 78.45C230.545 75.915 228.53 73.9 225.995 73.9H207.47V42.115C207.47 39.32 205.26 37.11 202.465 37.11C199.67 37.11 197.46 39.32 197.46 42.115V77.995ZM242.709 83H268.254C270.724 83 272.739 81.05 272.739 78.58C272.739 76.11 270.724 74.095 268.254 74.095H247.649V64.54H265.004C267.474 64.54 269.489 62.59 269.489 60.12C269.489 57.65 267.474 55.635 265.004 55.635H247.649V46.405H267.929C270.399 46.405 272.414 44.455 272.414 41.985C272.414 39.515 270.399 37.5 267.929 37.5H242.709C239.914 37.5 237.704 39.71 237.704 42.505V77.995C237.704 80.79 239.914 83 242.709 83ZM278.129 78.71C278.129 81.31 280.144 83.39 282.744 83.39C284.824 83.39 286.514 82.22 287.359 80.27L290.544 72.795H310.564L313.619 79.945C314.529 82.025 316.089 83.39 318.429 83.39C321.094 83.39 323.174 81.245 323.174 78.58C323.174 77.93 322.979 77.28 322.654 76.565L306.794 40.75C305.689 38.28 303.739 36.785 301.009 36.785H300.424C297.694 36.785 295.679 38.28 294.574 40.75L278.714 76.565C278.389 77.28 278.129 77.995 278.129 78.71ZM294.249 63.955L300.554 48.94L306.859 63.955H294.249ZM331.015 78.385C331.015 81.18 333.225 83.39 336.02 83.39C338.815 83.39 341.025 81.18 341.025 78.385V68.44H349.02L358.77 80.79C359.94 82.285 361.435 83.39 363.71 83.39C366.115 83.39 368.455 81.57 368.455 78.775C368.455 77.215 367.805 76.175 366.83 74.94L359.875 66.49C365.4 64.215 368.975 59.795 368.975 52.645V52.515C368.975 48.225 367.61 44.65 365.075 42.115C362.085 39.125 357.6 37.5 351.815 37.5H336.02C333.225 37.5 331.015 39.71 331.015 42.505V78.385ZM341.025 59.6V46.535H350.97C355.845 46.535 358.835 48.745 358.835 53.035V53.165C358.835 57 356.04 59.6 351.165 59.6H341.025ZM377.987 78.45C377.987 81.18 380.197 83.39 382.927 83.39C385.657 83.39 387.867 81.18 387.867 78.45V54.075L407.887 80.335C409.252 82.09 410.682 83.26 413.087 83.26H413.412C416.207 83.26 418.417 81.05 418.417 78.255V42.05C418.417 39.32 416.207 37.11 413.477 37.11C410.747 37.11 408.537 39.32 408.537 42.05V65.515L389.232 40.165C387.867 38.41 386.437 37.24 384.032 37.24H382.992C380.197 37.24 377.987 39.45 377.987 42.245V78.45ZM429.795 78.385C429.795 81.18 432.005 83.39 434.8 83.39C437.595 83.39 439.805 81.18 439.805 78.385V42.115C439.805 39.32 437.595 37.11 434.8 37.11C432.005 37.11 429.795 39.32 429.795 42.115V78.385ZM451.176 78.45C451.176 81.18 453.386 83.39 456.116 83.39C458.846 83.39 461.056 81.18 461.056 78.45V54.075L481.076 80.335C482.441 82.09 483.871 83.26 486.276 83.26H486.601C489.396 83.26 491.606 81.05 491.606 78.255V42.05C491.606 39.32 489.396 37.11 486.666 37.11C483.936 37.11 481.726 39.32 481.726 42.05V65.515L462.421 40.165C461.056 38.41 459.626 37.24 457.221 37.24H456.181C453.386 37.24 451.176 39.45 451.176 42.245V78.45ZM524.433 83.78C531.258 83.78 536.653 81.505 540.358 79.23C542.763 77.8 543.868 75.785 543.868 72.86V61.81C543.868 59.015 541.658 56.805 538.863 56.805H527.423C525.018 56.805 523.068 58.755 523.068 61.16C523.068 63.565 525.018 65.45 527.423 65.45H534.183V71.95C531.648 73.77 528.398 74.68 524.758 74.68C516.698 74.68 510.978 68.57 510.978 60.25V60.12C510.978 52.385 516.763 45.95 524.043 45.95C528.333 45.95 531.258 47.12 533.988 49.07C534.703 49.59 535.613 50.11 537.043 50.11C539.773 50.11 541.983 47.9 541.983 45.17C541.983 43.22 540.878 41.855 539.903 41.14C535.808 38.28 531.258 36.72 524.368 36.72C510.588 36.72 500.513 47.315 500.513 60.25V60.38C500.513 73.835 510.263 83.78 524.433 83.78ZM572.987 77.995C572.987 80.79 575.197 83 577.992 83H601.522C604.057 83 606.072 80.985 606.072 78.45C606.072 75.915 604.057 73.9 601.522 73.9H582.997V42.115C582.997 39.32 580.787 37.11 577.992 37.11C575.197 37.11 572.987 39.32 572.987 42.115V77.995ZM610.111 78.71C610.111 81.31 612.126 83.39 614.726 83.39C616.806 83.39 618.496 82.22 619.341 80.27L622.526 72.795H642.546L645.601 79.945C646.511 82.025 648.071 83.39 650.411 83.39C653.076 83.39 655.156 81.245 655.156 78.58C655.156 77.93 654.961 77.28 654.636 76.565L638.776 40.75C637.671 38.28 635.721 36.785 632.991 36.785H632.406C629.676 36.785 627.661 38.28 626.556 40.75L610.696 76.565C610.371 77.28 610.111 77.995 610.111 78.71ZM626.231 63.955L632.536 48.94L638.841 63.955H626.231ZM662.997 77.995C662.997 80.79 665.207 83 668.002 83H684.642C694.912 83 701.672 78.84 701.672 70.52V70.39C701.672 64.28 698.422 61.225 693.157 59.21C696.407 57.39 699.137 54.53 699.137 49.395V49.265C699.137 46.145 698.097 43.61 696.017 41.53C693.417 38.93 689.322 37.5 684.122 37.5H668.002C665.207 37.5 662.997 39.71 662.997 42.505V77.995ZM672.747 55.895V46.275H682.627C686.852 46.275 689.192 47.965 689.192 50.955V51.085C689.192 54.465 686.397 55.895 681.977 55.895H672.747ZM672.747 74.225V64.215H684.317C689.452 64.215 691.727 66.1 691.727 69.155V69.285C691.727 72.665 689.062 74.225 684.642 74.225H672.747ZM750.714 83.78C757.994 83.78 762.804 81.635 766.899 78.06C767.809 77.28 768.589 76.045 768.589 74.485C768.589 71.95 766.444 69.87 763.909 69.87C762.739 69.87 761.699 70.325 760.919 70.975C758.059 73.25 755.264 74.55 751.039 74.55C743.239 74.55 737.844 68.05 737.844 60.25V60.12C737.844 52.32 743.369 45.95 751.039 45.95C754.614 45.95 757.539 47.12 760.334 49.2C761.049 49.655 761.959 50.175 763.324 50.175C766.054 50.175 768.264 48.03 768.264 45.3C768.264 43.545 767.354 42.115 766.314 41.335C762.544 38.54 757.929 36.72 751.104 36.72C737.129 36.72 727.379 47.315 727.379 60.25V60.38C727.379 73.445 737.324 83.78 750.714 83.78ZM782.387 83H807.932C810.402 83 812.417 81.05 812.417 78.58C812.417 76.11 810.402 74.095 807.932 74.095H787.327V64.54H804.682C807.152 64.54 809.167 62.59 809.167 60.12C809.167 57.65 807.152 55.635 804.682 55.635H787.327V46.405H807.607C810.077 46.405 812.092 44.455 812.092 41.985C812.092 39.515 810.077 37.5 807.607 37.5H782.387C779.592 37.5 777.382 39.71 777.382 42.505V77.995C777.382 80.79 779.592 83 782.387 83ZM820.927 78.45C820.927 81.18 823.137 83.39 825.867 83.39C828.597 83.39 830.807 81.18 830.807 78.45V54.075L850.827 80.335C852.192 82.09 853.622 83.26 856.027 83.26H856.352C859.147 83.26 861.357 81.05 861.357 78.255V42.05C861.357 39.32 859.147 37.11 856.417 37.11C853.687 37.11 851.477 39.32 851.477 42.05V65.515L832.172 40.165C830.807 38.41 829.377 37.24 826.972 37.24H825.932C823.137 37.24 820.927 39.45 820.927 42.245V78.45ZM882.874 78.385C882.874 81.18 885.084 83.39 887.879 83.39C890.674 83.39 892.884 81.18 892.884 78.385V46.73H902.504C905.039 46.73 907.119 44.65 907.119 42.115C907.119 39.58 905.039 37.5 902.504 37.5H873.254C870.719 37.5 868.639 39.58 868.639 42.115C868.639 44.65 870.719 46.73 873.254 46.73H882.874V78.385ZM914.428 78.385C914.428 81.18 916.638 83.39 919.433 83.39C922.228 83.39 924.438 81.18 924.438 78.385V68.44H932.433L942.183 80.79C943.353 82.285 944.848 83.39 947.123 83.39C949.528 83.39 951.868 81.57 951.868 78.775C951.868 77.215 951.218 76.175 950.243 74.94L943.288 66.49C948.813 64.215 952.388 59.795 952.388 52.645V52.515C952.388 48.225 951.023 44.65 948.488 42.115C945.498 39.125 941.013 37.5 935.228 37.5H919.433C916.638 37.5 914.428 39.71 914.428 42.505V78.385ZM924.438 59.6V46.535H934.383C939.258 46.535 942.248 48.745 942.248 53.035V53.165C942.248 57 939.453 59.6 934.578 59.6H924.438ZM966.405 83H991.95C994.42 83 996.435 81.05 996.435 78.58C996.435 76.11 994.42 74.095 991.95 74.095H971.345V64.54H988.7C991.17 64.54 993.185 62.59 993.185 60.12C993.185 57.65 991.17 55.635 988.7 55.635H971.345V46.405H991.625C994.095 46.405 996.11 44.455 996.11 41.985C996.11 39.515 994.095 37.5 991.625 37.5H966.405C963.61 37.5 961.4 39.71 961.4 42.505V77.995C961.4 80.79 963.61 83 966.405 83Z" fill="#13181D"/>
</svg>
